<?xml version="1.0" standalone="no"?>
<svg viewBox="0 0 200 200" xmlns="http://www.w3.org/2000/svg">
  <path fill="#F1C21B" d="M42.3,-66.4C54,-66.5,62.2,-53.6,64.6,-40.3C66.9,-27.1,63.3,-13.6,60.4,-1.7C57.6,10.2,55.3,20.4,52.6,33C49.9,45.5,46.7,60.4,37.8,64.6C29,68.8,14.5,62.4,-0.2,62.8C-15,63.2,-29.9,70.5,-44,69.3C-58,68.1,-71.1,58.3,-78,45.4C-84.8,32.4,-85.5,16.2,-79.6,3.4C-73.7,-9.4,-61.2,-18.8,-53.1,-29.6C-45,-40.4,-41.2,-52.6,-33.1,-54.6C-24.9,-56.6,-12.5,-48.4,1.4,-50.8C15.3,-53.2,30.6,-66.3,42.3,-66.4Z" transform="translate(100 100)" />
</svg>
